<?xml version="1.0" encoding="UTF-8"?>
<!DOCTYPE score-partwise PUBLIC "-//Recordare//DTD MusicXML 3.1 Partwise//EN" "http://www.musicxml.org/dtds/partwise.dtd">
<score-partwise version="3.1">
  <identification>
    <encoding>
      <software>MuseScore 3.5.2</software>
      <encoding-date>2023-03-07</encoding-date>
      <supports element="accidental" type="yes"/>
      <supports element="beam" type="yes"/>
      <supports element="print" attribute="new-page" type="yes" value="yes"/>
      <supports element="print" attribute="new-system" type="yes" value="yes"/>
      <supports element="stem" type="yes"/>
      </encoding>
    </identification>
  <defaults>
    <scaling>
      <millimeters>7.05556</millimeters>
      <tenths>40</tenths>
      </scaling>
    <page-layout>
      <page-height>1683.78</page-height>
      <page-width>1190.55</page-width>
      <page-margins type="even">
        <left-margin>56.6929</left-margin>
        <right-margin>56.6929</right-margin>
        <top-margin>56.6929</top-margin>
        <bottom-margin>113.386</bottom-margin>
        </page-margins>
      <page-margins type="odd">
        <left-margin>56.6929</left-margin>
        <right-margin>56.6929</right-margin>
        <top-margin>56.6929</top-margin>
        <bottom-margin>113.386</bottom-margin>
        </page-margins>
      </page-layout>
    <word-font font-family="FreeSerif" font-size="10"/>
    <lyric-font font-family="FreeSerif" font-size="11"/>
    </defaults>
  <part-list>
    <score-part id="P1">
      <part-name>?‹Õ</part-name>
      <part-abbreviation>Pno.</part-abbreviation>
      <score-instrument id="P1-I1">
        <instrument-name>?‹Õ</instrument-name>
        </score-instrument>
      <midi-device id="P1-I1" port="1"></midi-device>
      <midi-instrument id="P1-I1">
        <midi-channel>1</midi-channel>
        <midi-program>1</midi-program>
        <volume>78.7402</volume>
        <pan>0</pan>
        </midi-instrument>
      </score-part>
    </part-list>
  <part id="P1">
    <measure number="1" width="123.81">
      <print>
        <system-layout>
          <system-margins>
            <left-margin>0.00</left-margin>
            <right-margin>0.00</right-margin>
            </system-margins>
          <top-system-distance>70.00</top-system-distance>
          </system-layout>
        </print>
      <attributes>
        <divisions>4</divisions>
        <key>
          <fifths>0</fifths>
          </key>
        <time>
          <beats>4</beats>
          <beat-type>4</beat-type>
          </time>
        <clef>
          <sign>G</sign>
          <line>2</line>
          </clef>
        </attributes>
      <note>
        <rest measure="yes"/>
        <duration>16</duration>
        <voice>1</voice>
        </note>
      </measure>
    <measure number="2" width="138.08">
      <note default-x="13.80" default-y="-50.00" dynamics="50.00">
        <pitch>
          <step>C</step>
          <octave>4</octave>
          </pitch>
        <duration>6</duration>
        <voice>1</voice>
        <type>quarter</type>
        <dot/>
        <stem>up</stem>
        <lyric number="1" default-x="6.58" default-y="-62.42" relative-y="-30.00">
          <syllabic>single</syllabic>
          <text>‚³</text>
          </lyric>
        </note>
      <note default-x="50.69" default-y="-45.00" dynamics="50.00">
        <pitch>
          <step>D</step>
          <octave>4</octave>
          </pitch>
        <duration>2</duration>
        <voice>1</voice>
        <type>eighth</type>
        <stem>up</stem>
        <lyric number="1" default-x="6.58" default-y="-62.42" relative-y="-30.00">
          <syllabic>single</syllabic>
          <text>‚©</text>
          </lyric>
        </note>
      <note default-x="75.97" default-y="-40.00" dynamics="50.00">
        <pitch>
          <step>E</step>
          <octave>4</octave>
          </pitch>
        <duration>4</duration>
        <voice>1</voice>
        <type>quarter</type>
        <stem>up</stem>
        <lyric number="1" default-x="6.58" default-y="-62.42" relative-y="-30.00">
          <syllabic>single</syllabic>
          <text>‚¦</text>
          </lyric>
        </note>
      <note default-x="106.23" default-y="-45.00" dynamics="50.00">
        <pitch>
          <step>D</step>
          <octave>4</octave>
          </pitch>
        <duration>4</duration>
        <voice>1</voice>
        <type>quarter</type>
        <stem>up</stem>
        <lyric number="1" default-x="6.58" default-y="-62.42" relative-y="-30.00">
          <syllabic>single</syllabic>
          <text>‚É</text>
          </lyric>
        </note>
      </measure>
    <measure number="3" width="149.33">
      <note default-x="12.02" default-y="-35.00" dynamics="50.00">
        <pitch>
          <step>F</step>
          <octave>4</octave>
          </pitch>
        <duration>4</duration>
        <voice>1</voice>
        <type>quarter</type>
        <stem>up</stem>
        <lyric number="1" default-x="6.58" default-y="-62.42" relative-y="-30.00">
          <syllabic>single</syllabic>
          <text>‚Ý</text>
          </lyric>
        </note>
      <note default-x="43.01" default-y="-40.00" dynamics="50.00">
        <pitch>
          <step>E</step>
          <octave>4</octave>
          </pitch>
        <duration>4</duration>
        <voice>1</voice>
        <type>quarter</type>
        <stem>up</stem>
        <lyric number="1" default-x="6.58" default-y="-62.42" relative-y="-30.00">
          <syllabic>single</syllabic>
          <text>‚¿</text>
          </lyric>
        </note>
      <note default-x="74.01" default-y="-45.00" dynamics="50.00">
        <pitch>
          <step>D</step>
          <octave>4</octave>
          </pitch>
        <duration>2</duration>
        <voice>1</voice>
        <type>eighth</type>
        <stem>up</stem>
        <beam number="1">begin</beam>
        <notations>
          <slur type="start" placement="below" number="1"/>
          </notations>
        <lyric number="1" default-x="6.58" default-y="-62.42" relative-y="-30.00">
          <syllabic>single</syllabic>
          <text>‚½</text>
          </lyric>
        </note>
      <note default-x="93.47" default-y="-55.00" dynamics="50.00">
        <pitch>
          <step>B</step>
          <octave>3</octave>
          </pitch>
        <duration>2</duration>
        <voice>1</voice>
        <type>eighth</type>
        <stem>up</stem>
        <beam number="1">end</beam>
        <notations>
          <slur type="stop" number="1"/>
          </notations>
        </note>
      <note default-x="116.74" default-y="-50.00" dynamics="50.00">
        <pitch>
          <step>C</step>
          <octave>4</octave>
          </pitch>
        <duration>4</duration>
        <voice>1</voice>
        <type>quarter</type>
        <stem>up</stem>
        <lyric number="1" default-x="6.58" default-y="-62.42" relative-y="-30.00">
          <syllabic>single</syllabic>
          <text>‚é</text>
          </lyric>
        </note>
      </measure>
    <measure number="4" width="126.30">
      <note default-x="11.82" default-y="-25.00" dynamics="50.00">
        <pitch>
          <step>A</step>
          <octave>4</octave>
          </pitch>
        <duration>4</duration>
        <voice>1</voice>
        <type>quarter</type>
        <stem>up</stem>
        <lyric number="1" default-x="6.58" default-y="-62.42" relative-y="-30.00">
          <syllabic>single</syllabic>
          <text>‚©</text>
          </lyric>
        </note>
      <note default-x="40.04" default-y="-30.00" dynamics="50.00">
        <pitch>
          <step>G</step>
          <octave>4</octave>
          </pitch>
        <duration>4</duration>
        <voice>1</voice>
        <type>quarter</type>
        <stem>up</stem>
        <lyric number="1" default-x="6.58" default-y="-62.42" relative-y="-30.00">
          <syllabic>single</syllabic>
          <text>‚Ý</text>
          </lyric>
        </note>
      <note default-x="68.26" default-y="-35.00" dynamics="50.00">
        <pitch>
          <step>F</step>
          <octave>4</octave>
          </pitch>
        <duration>4</duration>
        <voice>1</voice>
        <type>quarter</type>
        <stem>up</stem>
        <lyric number="1" default-x="6.58" default-y="-62.42" relative-y="-30.00">
          <syllabic>single</syllabic>
          <text>‚Ì</text>
          </lyric>
        </note>
      <note default-x="96.48" default-y="-40.00" dynamics="50.00">
        <pitch>
          <step>E</step>
          <octave>4</octave>
          </pitch>
        <duration>4</duration>
        <voice>1</voice>
        <type>quarter</type>
        <stem>up</stem>
        <lyric number="1" default-x="6.58" default-y="-62.42" relative-y="-30.00">
          <syllabic>single</syllabic>
          <text>‚Ý</text>
          </lyric>
        </note>
      </measure>
    <measure number="5" width="133.12">
      <note default-x="12.02" default-y="-45.00" dynamics="50.00">
        <pitch>
          <step>D</step>
          <octave>4</octave>
          </pitch>
        <duration>4</duration>
        <voice>1</voice>
        <type>quarter</type>
        <stem>up</stem>
        <lyric number="1" default-x="6.58" default-y="-62.42" relative-y="-30.00">
          <syllabic>single</syllabic>
          <text>‚â</text>
          </lyric>
        </note>
      <note default-x="40.13" default-y="-40.00" dynamics="50.00">
        <pitch>
          <step>E</step>
          <octave>4</octave>
          </pitch>
        <duration>2</duration>
        <voice>1</voice>
        <type>eighth</type>
        <stem>up</stem>
        <beam number="1">begin</beam>
        <notations>
          <slur type="start" placement="below" number="1"/>
          </notations>
        <lyric number="1" default-x="6.58" default-y="-62.42" relative-y="-30.00">
          <syllabic>single</syllabic>
          <text>‚±</text>
          </lyric>
        </note>
      <note default-x="57.71" default-y="-50.00" dynamics="50.00">
        <pitch>
          <step>C</step>
          <octave>4</octave>
          </pitch>
        <duration>2</duration>
        <voice>1</voice>
        <type>eighth</type>
        <stem>up</stem>
        <beam number="1">end</beam>
        <notations>
          <slur type="stop" number="1"/>
          </notations>
        </note>
      <note default-x="75.28" default-y="-30.00" dynamics="50.00">
        <pitch>
          <step>G</step>
          <octave>4</octave>
          </pitch>
        <duration>4</duration>
        <voice>1</voice>
        <type>quarter</type>
        <stem>up</stem>
        <lyric number="1" default-x="6.58" default-y="-62.42" relative-y="-30.00">
          <syllabic>single</syllabic>
          <text>‚í</text>
          </lyric>
        </note>
      <note>
        <rest/>
        <duration>4</duration>
        <voice>1</voice>
        <type>quarter</type>
        </note>
      </measure>
    <measure number="6" width="135.66">
      <note default-x="13.80" default-y="-50.00" dynamics="50.00">
        <pitch>
          <step>C</step>
          <octave>4</octave>
          </pitch>
        <duration>6</duration>
        <voice>1</voice>
        <type>quarter</type>
        <dot/>
        <stem>up</stem>
        <lyric number="1" default-x="6.58" default-y="-62.42" relative-y="-30.00">
          <syllabic>single</syllabic>
          <text>‚¿</text>
          </lyric>
        </note>
      <note default-x="49.78" default-y="-45.00" dynamics="50.00">
        <pitch>
          <step>D</step>
          <octave>4</octave>
          </pitch>
        <duration>2</duration>
        <voice>1</voice>
        <type>eighth</type>
        <stem>up</stem>
        <lyric number="1" default-x="6.58" default-y="-62.42" relative-y="-30.00">
          <syllabic>single</syllabic>
          <text>‚Æ</text>
          </lyric>
        </note>
      <note default-x="75.05" default-y="-40.00" dynamics="50.00">
        <pitch>
          <step>E</step>
          <octave>4</octave>
          </pitch>
        <duration>4</duration>
        <voice>1</voice>
        <type>quarter</type>
        <stem>up</stem>
        <lyric number="1" default-x="6.58" default-y="-62.42" relative-y="-30.00">
          <syllabic>single</syllabic>
          <text>‚Ö</text>
          </lyric>
        </note>
      <note default-x="104.56" default-y="-45.00" dynamics="50.00">
        <pitch>
          <step>D</step>
          <octave>4</octave>
          </pitch>
        <duration>4</duration>
        <voice>1</voice>
        <type>quarter</type>
        <stem>up</stem>
        <lyric number="1" default-x="6.58" default-y="-62.42" relative-y="-30.00">
          <syllabic>single</syllabic>
          <text>‚µ</text>
          </lyric>
        </note>
      </measure>
    <measure number="7" width="153.09">
      <note default-x="11.22" default-y="-35.00" dynamics="50.00">
        <pitch>
          <step>F</step>
          <octave>4</octave>
          </pitch>
        <duration>4</duration>
        <voice>1</voice>
        <type>quarter</type>
        <stem>up</stem>
        <lyric number="1" default-x="6.58" default-y="-62.42" relative-y="-30.00">
          <syllabic>single</syllabic>
          <text>‚¢</text>
          </lyric>
        </note>
      <note default-x="43.50" default-y="-40.00" dynamics="50.00">
        <pitch>
          <step>E</step>
          <octave>4</octave>
          </pitch>
        <duration>4</duration>
        <voice>1</voice>
        <type>quarter</type>
        <stem>up</stem>
        <lyric number="1" default-x="6.58" default-y="-62.42" relative-y="-30.00">
          <syllabic>single</syllabic>
          <text>‚í</text>
          </lyric>
        </note>
      <note default-x="75.77" default-y="-45.00" dynamics="50.00">
        <pitch>
          <step>D</step>
          <octave>4</octave>
          </pitch>
        <duration>2</duration>
        <voice>1</voice>
        <type>eighth</type>
        <stem>up</stem>
        <beam number="1">begin</beam>
        <notations>
          <slur type="start" placement="below" number="1"/>
          </notations>
        <lyric number="1" default-x="6.58" default-y="-62.42" relative-y="-30.00">
          <syllabic>single</syllabic>
          <text>‚¨</text>
          </lyric>
        </note>
      <note default-x="95.95" default-y="-55.00" dynamics="50.00">
        <pitch>
          <step>B</step>
          <octave>3</octave>
          </pitch>
        <duration>2</duration>
        <voice>1</voice>
        <type>eighth</type>
        <stem>up</stem>
        <beam number="1">end</beam>
        <notations>
          <slur type="stop" number="1"/>
          </notations>
        </note>
      <note default-x="119.21" default-y="-50.00" dynamics="50.00">
        <pitch>
          <step>C</step>
          <octave>4</octave>
          </pitch>
        <duration>4</duration>
        <voice>1</voice>
        <type>quarter</type>
        <stem>up</stem>
        <lyric number="1" default-x="6.58" default-y="-62.42" relative-y="-30.00">
          <syllabic>single</syllabic>
          <text>‚Ì</text>
          </lyric>
        </note>
      </measure>
    <measure number="8" width="117.78">
      <note default-x="11.22" default-y="-25.00" dynamics="50.00">
        <pitch>
          <step>A</step>
          <octave>4</octave>
          </pitch>
        <duration>4</duration>
        <voice>1</voice>
        <type>quarter</type>
        <stem>up</stem>
        <lyric number="1" default-x="6.58" default-y="-62.42" relative-y="-30.00">
          <syllabic>single</syllabic>
          <text>‚¢</text>
          </lyric>
        </note>
      <note default-x="37.46" default-y="-30.00" dynamics="50.00">
        <pitch>
          <step>G</step>
          <octave>4</octave>
          </pitch>
        <duration>4</duration>
        <voice>1</voice>
        <type>quarter</type>
        <stem>up</stem>
        <lyric number="1" default-x="6.58" default-y="-62.42" relative-y="-30.00">
          <syllabic>single</syllabic>
          <text>‚µ</text>
          </lyric>
        </note>
      <note default-x="63.70" default-y="-35.00" dynamics="50.00">
        <pitch>
          <step>F</step>
          <octave>4</octave>
          </pitch>
        <duration>4</duration>
        <voice>1</voice>
        <type>quarter</type>
        <stem>up</stem>
        <lyric number="1" default-x="6.58" default-y="-62.42" relative-y="-30.00">
          <syllabic>single</syllabic>
          <text>‚¸</text>
          </lyric>
        </note>
      <note default-x="89.94" default-y="-40.00" dynamics="50.00">
        <pitch>
          <step>E</step>
          <octave>4</octave>
          </pitch>
        <duration>4</duration>
        <voice>1</voice>
        <type>quarter</type>
        <stem>up</stem>
        <lyric number="1" default-x="6.58" default-y="-62.42" relative-y="-30.00">
          <syllabic>single</syllabic>
          <text>‚¦</text>
          </lyric>
        </note>
      </measure>
    <measure number="9" width="186.58">
      <print new-system="yes">
        <system-layout>
          <system-margins>
            <left-margin>0.00</left-margin>
            <right-margin>0.00</right-margin>
            </system-margins>
          <system-distance>150.00</system-distance>
          </system-layout>
        </print>
      <note default-x="58.17" default-y="-45.00" dynamics="50.00">
        <pitch>
          <step>D</step>
          <octave>4</octave>
          </pitch>
        <duration>4</duration>
        <voice>1</voice>
        <type>quarter</type>
        <stem>up</stem>
        <lyric number="1" default-x="6.58" default-y="-68.60" relative-y="-30.00">
          <syllabic>single</syllabic>
          <text>‚©</text>
          </lyric>
        </note>
      <note default-x="88.01" default-y="-40.00" dynamics="50.00">
        <pitch>
          <step>E</step>
          <octave>4</octave>
          </pitch>
        <duration>2</duration>
        <voice>1</voice>
        <type>eighth</type>
        <stem>up</stem>
        <beam number="1">begin</beam>
        <notations>
          <slur type="start" placement="below" number="1"/>
          </notations>
        <lyric number="1" default-x="6.58" default-y="-68.60" relative-y="-30.00">
          <syllabic>single</syllabic>
          <text>‚½</text>
          </lyric>
        </note>
      <note default-x="106.66" default-y="-50.00" dynamics="50.00">
        <pitch>
          <step>C</step>
          <octave>4</octave>
          </pitch>
        <duration>2</duration>
        <voice>1</voice>
        <type>eighth</type>
        <stem>up</stem>
        <beam number="1">end</beam>
        <notations>
          <slur type="stop" number="1"/>
          </notations>
        </note>
      <note default-x="125.31" default-y="-30.00" dynamics="50.00">
        <pitch>
          <step>G</step>
          <octave>4</octave>
          </pitch>
        <duration>4</duration>
        <voice>1</voice>
        <type>quarter</type>
        <stem>up</stem>
        <lyric number="1" default-x="6.58" default-y="-68.60" relative-y="-30.00">
          <syllabic>single</syllabic>
          <text>‚­</text>
          </lyric>
        </note>
      <note>
        <rest/>
        <duration>4</duration>
        <voice>1</voice>
        <type>quarter</type>
        </note>
      </measure>
    <measure number="10" width="150.87">
      <note default-x="11.62" default-y="-45.00" dynamics="50.00">
        <pitch>
          <step>D</step>
          <octave>4</octave>
          </pitch>
        <duration>4</duration>
        <voice>1</voice>
        <type>quarter</type>
        <stem>up</stem>
        <lyric number="1" default-x="6.58" default-y="-68.60" relative-y="-30.00">
          <syllabic>single</syllabic>
          <text>‚·</text>
          </lyric>
        </note>
      <note default-x="43.17" default-y="-40.00" dynamics="50.00">
        <pitch>
          <step>E</step>
          <octave>4</octave>
          </pitch>
        <duration>4</duration>
        <voice>1</voice>
        <type>quarter</type>
        <stem>up</stem>
        <lyric number="1" default-x="6.58" default-y="-68.60" relative-y="-30.00">
          <syllabic>single</syllabic>
          <text>‚­</text>
          </lyric>
        </note>
      <note default-x="74.73" default-y="-45.00" dynamics="50.00">
        <pitch>
          <step>D</step>
          <octave>4</octave>
          </pitch>
        <duration>2</duration>
        <voice>1</voice>
        <type>eighth</type>
        <stem>up</stem>
        <beam number="1">begin</beam>
        <notations>
          <slur type="start" placement="below" number="1"/>
          </notations>
        <lyric number="1" default-x="6.58" default-y="-68.60" relative-y="-30.00">
          <syllabic>single</syllabic>
          <text>‚¢</text>
          </lyric>
        </note>
      <note default-x="94.45" default-y="-55.00" dynamics="50.00">
        <pitch>
          <step>B</step>
          <octave>3</octave>
          </pitch>
        <duration>2</duration>
        <voice>1</voice>
        <type>eighth</type>
        <stem>up</stem>
        <beam number="1">end</beam>
        <notations>
          <slur type="stop" number="1"/>
          </notations>
        </note>
      <note default-x="117.72" default-y="-65.00" dynamics="50.00">
        <pitch>
          <step>G</step>
          <octave>3</octave>
          </pitch>
        <duration>4</duration>
        <voice>1</voice>
        <type>quarter</type>
        <stem>up</stem>
        <lyric number="1" default-x="6.58" default-y="-68.60" relative-y="-30.00">
          <syllabic>single</syllabic>
          <text>‚Ì</text>
          </lyric>
        </note>
      </measure>
    <measure number="11" width="152.00">
      <note default-x="11.22" default-y="-35.00" dynamics="50.00">
        <pitch>
          <step>F</step>
          <octave>4</octave>
          </pitch>
        <duration>4</duration>
        <voice>1</voice>
        <type>quarter</type>
        <stem>up</stem>
        <lyric number="1" default-x="6.58" default-y="-68.60" relative-y="-30.00">
          <syllabic>single</syllabic>
          <text>‚¢</text>
          </lyric>
        </note>
      <note default-x="43.19" default-y="-40.00" dynamics="50.00">
        <pitch>
          <step>E</step>
          <octave>4</octave>
          </pitch>
        <duration>4</duration>
        <voice>1</voice>
        <type>quarter</type>
        <stem>up</stem>
        <lyric number="1" default-x="6.58" default-y="-68.60" relative-y="-30.00">
          <syllabic>single</syllabic>
          <text>‚µ</text>
          </lyric>
        </note>
      <note default-x="75.17" default-y="-45.00" dynamics="50.00">
        <pitch>
          <step>D</step>
          <octave>4</octave>
          </pitch>
        <duration>2</duration>
        <voice>1</voice>
        <type>eighth</type>
        <stem>up</stem>
        <beam number="1">begin</beam>
        <notations>
          <slur type="start" placement="below" number="1"/>
          </notations>
        <lyric number="1" default-x="6.58" default-y="-68.60" relative-y="-30.00">
          <syllabic>single</syllabic>
          <text>‚ª</text>
          </lyric>
        </note>
      <note default-x="95.15" default-y="-55.00" dynamics="50.00">
        <pitch>
          <step>B</step>
          <octave>3</octave>
          </pitch>
        <duration>2</duration>
        <voice>1</voice>
        <type>eighth</type>
        <stem>up</stem>
        <beam number="1">end</beam>
        <notations>
          <slur type="stop" number="1"/>
          </notations>
        </note>
      <note default-x="118.42" default-y="-65.00" dynamics="50.00">
        <pitch>
          <step>G</step>
          <octave>3</octave>
          </pitch>
        <duration>4</duration>
        <voice>1</voice>
        <type>quarter</type>
        <stem>up</stem>
        <lyric number="1" default-x="6.58" default-y="-68.60" relative-y="-30.00">
          <syllabic>single</syllabic>
          <text>‚«</text>
          </lyric>
        </note>
      </measure>
    <measure number="12" width="140.86">
      <note default-x="11.22" default-y="-30.00" dynamics="50.00">
        <pitch>
          <step>G</step>
          <octave>4</octave>
          </pitch>
        <duration>4</duration>
        <voice>1</voice>
        <type>quarter</type>
        <stem>up</stem>
        <lyric number="1" default-x="6.58" default-y="-68.60" relative-y="-30.00">
          <syllabic>single</syllabic>
          <text>‚½</text>
          </lyric>
        </note>
      <note default-x="40.81" default-y="-35.00" dynamics="50.00">
        <pitch>
          <step>F</step>
          <octave>4</octave>
          </pitch>
        <duration>4</duration>
        <voice>1</voice>
        <type>quarter</type>
        <stem>up</stem>
        <lyric number="1" default-x="6.58" default-y="-68.60" relative-y="-30.00">
          <syllabic>single</syllabic>
          <text>‚©</text>
          </lyric>
        </note>
      <note default-x="70.40" default-y="-40.00" dynamics="50.00">
        <pitch>
          <step>E</step>
          <octave>4</octave>
          </pitch>
        <duration>6</duration>
        <voice>1</voice>
        <type>quarter</type>
        <dot/>
        <stem>up</stem>
        <lyric number="1" default-x="6.58" default-y="-68.60" relative-y="-30.00">
          <syllabic>single</syllabic>
          <text>‚­</text>
          </lyric>
        </note>
      <note default-x="106.49" default-y="-35.00" dynamics="50.00">
        <pitch>
          <step>F</step>
          <octave>4</octave>
          </pitch>
        <duration>2</duration>
        <voice>1</voice>
        <type>eighth</type>
        <stem>up</stem>
        <lyric number="1" default-x="6.58" default-y="-68.60" relative-y="-30.00">
          <syllabic>single</syllabic>
          <text>‚©</text>
          </lyric>
        </note>
      </measure>
    <measure number="13" width="136.74">
      <note default-x="10.02" default-y="-35.00" dynamics="50.00">
        <pitch>
          <step>F</step>
          <octave>4</octave>
          </pitch>
        <duration>4</duration>
        <voice>1</voice>
        <type>quarter</type>
        <stem>up</stem>
        <lyric number="1" default-x="6.58" default-y="-68.60" relative-y="-30.00">
          <syllabic>single</syllabic>
          <text>‚±</text>
          </lyric>
        </note>
      <note default-x="39.46" default-y="-35.00" dynamics="50.00">
        <pitch>
          <step>F</step>
          <octave>4</octave>
          </pitch>
        <duration>2</duration>
        <voice>1</voice>
        <type>eighth</type>
        <stem>up</stem>
        <beam number="1">begin</beam>
        <notations>
          <slur type="start" placement="below" number="1"/>
          </notations>
        <lyric number="1" default-x="6.58" default-y="-68.60" relative-y="-30.00">
          <syllabic>single</syllabic>
          <text>‚ß</text>
          </lyric>
        </note>
      <note default-x="57.86" default-y="-30.00" dynamics="50.00">
        <pitch>
          <step>G</step>
          <octave>4</octave>
          </pitch>
        <duration>2</duration>
        <voice>1</voice>
        <type>eighth</type>
        <stem>up</stem>
        <beam number="1">end</beam>
        <notations>
          <slur type="stop" number="1"/>
          </notations>
        </note>
      <note default-x="76.26" default-y="-30.00" dynamics="50.00">
        <pitch>
          <step>G</step>
          <octave>4</octave>
          </pitch>
        <duration>4</duration>
        <voice>1</voice>
        <type>quarter</type>
        <stem>up</stem>
        <lyric number="1" default-x="6.58" default-y="-68.60" relative-y="-30.00">
          <syllabic>single</syllabic>
          <text>‚Î</text>
          </lyric>
        </note>
      <note>
        <rest/>
        <duration>4</duration>
        <voice>1</voice>
        <type>quarter</type>
        </note>
      </measure>
    <measure number="14" width="151.35">
      <note default-x="12.02" default-y="-15.00" dynamics="50.00">
        <pitch>
          <step>C</step>
          <octave>5</octave>
          </pitch>
        <duration>6</duration>
        <voice>1</voice>
        <type>quarter</type>
        <dot/>
        <stem>down</stem>
        <lyric number="1" default-x="6.58" default-y="-68.60" relative-y="-30.00">
          <syllabic>single</syllabic>
          <text>‚Ý</text>
          </lyric>
        </note>
      <note default-x="53.04" default-y="-20.00" dynamics="50.00">
        <pitch>
          <step>B</step>
          <octave>4</octave>
          </pitch>
        <duration>2</duration>
        <voice>1</voice>
        <type>eighth</type>
        <stem>down</stem>
        <lyric number="1" default-x="6.58" default-y="-68.60" relative-y="-30.00">
          <syllabic>single</syllabic>
          <text>‚È</text>
          </lyric>
        </note>
      <note default-x="74.06" default-y="-20.00" dynamics="50.00">
        <pitch>
          <step>B</step>
          <octave>4</octave>
          </pitch>
        <duration>2</duration>
        <voice>1</voice>
        <type>eighth</type>
        <stem>up</stem>
        <beam number="1">begin</beam>
        <notations>
          <slur type="start" placement="below" number="1"/>
          </notations>
        <lyric number="1" default-x="6.58" default-y="-68.60" relative-y="-30.00">
          <syllabic>single</syllabic>
          <text>‚Ý</text>
          </lyric>
        </note>
      <note default-x="95.09" default-y="-25.00" dynamics="50.00">
        <pitch>
          <step>A</step>
          <octave>4</octave>
          </pitch>
        <duration>2</duration>
        <voice>1</voice>
        <type>eighth</type>
        <stem>up</stem>
        <beam number="1">end</beam>
        <notations>
          <slur type="stop" number="1"/>
          </notations>
        </note>
      <note default-x="116.11" default-y="-30.00" dynamics="50.00">
        <pitch>
          <step>G</step>
          <octave>4</octave>
          </pitch>
        <duration>4</duration>
        <voice>1</voice>
        <type>quarter</type>
        <stem>up</stem>
        <lyric number="1" default-x="6.58" default-y="-68.60" relative-y="-30.00">
          <syllabic>single</syllabic>
          <text>‚Ì</text>
          </lyric>
        </note>
      </measure>
    <measure number="15" width="158.76">
      <note default-x="12.02" default-y="-25.00" dynamics="50.00">
        <pitch>
          <step>A</step>
          <octave>4</octave>
          </pitch>
        <duration>6</duration>
        <voice>1</voice>
        <type>quarter</type>
        <dot/>
        <stem>up</stem>
        <lyric number="1" default-x="6.58" default-y="-68.60" relative-y="-30.00">
          <syllabic>single</syllabic>
          <text>‚â</text>
          </lyric>
        </note>
      <note default-x="54.15" default-y="-30.00" dynamics="50.00">
        <pitch>
          <step>G</step>
          <octave>4</octave>
          </pitch>
        <duration>2</duration>
        <voice>1</voice>
        <type>eighth</type>
        <stem>up</stem>
        <lyric number="1" default-x="6.58" default-y="-68.60" relative-y="-30.00">
          <syllabic>single</syllabic>
          <text>‚·</text>
          </lyric>
        </note>
      <note default-x="79.42" default-y="-30.00" dynamics="50.00">
        <pitch>
          <step>G</step>
          <octave>4</octave>
          </pitch>
        <duration>2</duration>
        <voice>1</voice>
        <type>eighth</type>
        <stem>up</stem>
        <beam number="1">begin</beam>
        <notations>
          <slur type="start" placement="below" number="1"/>
          </notations>
        <lyric number="1" default-x="6.58" default-y="-68.60" relative-y="-30.00">
          <syllabic>single</syllabic>
          <text>‚«</text>
          </lyric>
        </note>
      <note default-x="101.02" default-y="-35.00" dynamics="50.00">
        <pitch>
          <step>F</step>
          <octave>4</octave>
          </pitch>
        <duration>2</duration>
        <voice>1</voice>
        <type>eighth</type>
        <stem>up</stem>
        <beam number="1">end</beam>
        <notations>
          <slur type="stop" number="1"/>
          </notations>
        </note>
      <note default-x="122.61" default-y="-40.00" dynamics="50.00">
        <pitch>
          <step>E</step>
          <octave>4</octave>
          </pitch>
        <duration>4</duration>
        <voice>1</voice>
        <type>quarter</type>
        <stem>up</stem>
        <lyric number="1" default-x="6.58" default-y="-68.60" relative-y="-30.00">
          <syllabic>single</syllabic>
          <text>‚¨</text>
          </lyric>
        </note>
      </measure>
    <measure number="16" width="223.47">
      <print new-system="yes">
        <system-layout>
          <system-margins>
            <left-margin>0.00</left-margin>
            <right-margin>0.00</right-margin>
            </system-margins>
          <system-distance>150.00</system-distance>
          </system-layout>
        </print>
      <note default-x="58.17" default-y="-45.00" dynamics="50.00">
        <pitch>
          <step>D</step>
          <octave>4</octave>
          </pitch>
        <duration>6</duration>
        <voice>1</voice>
        <type>quarter</type>
        <dot/>
        <stem>up</stem>
        <lyric number="1" default-x="6.58" default-y="-61.47" relative-y="-30.00">
          <syllabic>single</syllabic>
          <text>‚¾</text>
          </lyric>
        </note>
      <note default-x="95.90" default-y="-40.00" dynamics="50.00">
        <pitch>
          <step>E</step>
          <octave>4</octave>
          </pitch>
        <duration>1</duration>
        <voice>1</voice>
        <type>16th</type>
        <stem>up</stem>
        <beam number="1">begin</beam>
        <beam number="2">begin</beam>
        <notations>
          <slur type="start" placement="below" number="1"/>
          </notations>
        <lyric number="1" default-x="6.58" default-y="-61.47" relative-y="-30.00">
          <syllabic>single</syllabic>
          <text>‚ê</text>
          </lyric>
        </note>
      <note default-x="111.56" default-y="-35.00" dynamics="50.00">
        <pitch>
          <step>F</step>
          <octave>4</octave>
          </pitch>
        <duration>1</duration>
        <voice>1</voice>
        <type>16th</type>
        <stem>up</stem>
        <beam number="1">end</beam>
        <beam number="2">end</beam>
        <notations>
          <slur type="stop" number="1"/>
          </notations>
        </note>
      <note default-x="127.23" default-y="-30.00" dynamics="50.00">
        <pitch>
          <step>G</step>
          <octave>4</octave>
          </pitch>
        <duration>2</duration>
        <voice>1</voice>
        <type>eighth</type>
        <stem>up</stem>
        <beam number="1">begin</beam>
        <notations>
          <slur type="start" placement="below" number="1"/>
          </notations>
        <lyric number="1" default-x="6.58" default-y="-61.47" relative-y="-30.00">
          <syllabic>single</syllabic>
          <text>‚©</text>
          </lyric>
        </note>
      <note default-x="150.89" default-y="-25.00" dynamics="50.00">
        <pitch>
          <step>A</step>
          <octave>4</octave>
          </pitch>
        <duration>2</duration>
        <voice>1</voice>
        <type>eighth</type>
        <stem>up</stem>
        <beam number="1">continue</beam>
        <notations>
          <slur type="stop" number="1"/>
          </notations>
        </note>
      <note default-x="174.55" default-y="-35.00" dynamics="50.00">
        <pitch>
          <step>F</step>
          <octave>4</octave>
          </pitch>
        <duration>2</duration>
        <voice>1</voice>
        <type>eighth</type>
        <stem>up</stem>
        <beam number="1">continue</beam>
        <notations>
          <slur type="start" placement="below" number="1"/>
          </notations>
        <lyric number="1" default-x="6.58" default-y="-61.47" relative-y="-30.00">
          <syllabic>single</syllabic>
          <text>‚Í</text>
          </lyric>
        </note>
      <note default-x="198.21" default-y="-45.00" dynamics="50.00">
        <pitch>
          <step>D</step>
          <octave>4</octave>
          </pitch>
        <duration>2</duration>
        <voice>1</voice>
        <type>eighth</type>
        <stem>up</stem>
        <beam number="1">end</beam>
        <notations>
          <slur type="stop" number="1"/>
          </notations>
        </note>
      </measure>
    <measure number="17" width="169.58">
      <note default-x="13.80" default-y="-50.00" dynamics="50.00">
        <pitch>
          <step>C</step>
          <octave>4</octave>
          </pitch>
        <duration>4</duration>
        <voice>1</voice>
        <type>quarter</type>
        <stem>up</stem>
        <lyric number="1" default-x="6.58" default-y="-61.47" relative-y="-30.00">
          <syllabic>single</syllabic>
          <text>‚Ý</text>
          </lyric>
        </note>
      <note default-x="47.58" default-y="-40.00" dynamics="50.00">
        <pitch>
          <step>E</step>
          <octave>4</octave>
          </pitch>
        <duration>2</duration>
        <voice>1</voice>
        <type>eighth</type>
        <stem>up</stem>
        <beam number="1">begin</beam>
        <notations>
          <slur type="start" placement="below" number="1"/>
          </notations>
        <lyric number="1" default-x="6.58" default-y="-61.47" relative-y="-30.00">
          <syllabic>single</syllabic>
          <text>‚¾</text>
          </lyric>
        </note>
      <note default-x="68.70" default-y="-45.00" dynamics="50.00">
        <pitch>
          <step>D</step>
          <octave>4</octave>
          </pitch>
        <duration>2</duration>
        <voice>1</voice>
        <type>eighth</type>
        <stem>up</stem>
        <beam number="1">end</beam>
        <notations>
          <slur type="stop" number="1"/>
          </notations>
        </note>
      <note default-x="89.82" default-y="-50.00" dynamics="50.00">
        <pitch>
          <step>C</step>
          <octave>4</octave>
          </pitch>
        <duration>2</duration>
        <voice>1</voice>
        <type>eighth</type>
        <stem>up</stem>
        <beam number="1">begin</beam>
        <lyric number="1" default-x="6.58" default-y="-61.47" relative-y="-30.00">
          <syllabic>single</syllabic>
          <text>‚³</text>
          </lyric>
        </note>
      <note default-x="113.08" default-y="-50.00" dynamics="50.00">
        <pitch>
          <step>C</step>
          <octave>4</octave>
          </pitch>
        <duration>2</duration>
        <voice>1</voice>
        <type>eighth</type>
        <stem>up</stem>
        <beam number="1">end</beam>
        <lyric number="1" default-x="6.58" default-y="-61.47" relative-y="-30.00">
          <syllabic>single</syllabic>
          <text>‚ñ</text>
          </lyric>
        </note>
      <note>
        <rest/>
        <duration>4</duration>
        <voice>1</voice>
        <type>quarter</type>
        </note>
      </measure>
    <measure number="18" width="141.49">
      <note default-x="13.80" default-y="-50.00" dynamics="50.00">
        <pitch>
          <step>C</step>
          <octave>4</octave>
          </pitch>
        <duration>6</duration>
        <voice>1</voice>
        <type>quarter</type>
        <dot/>
        <stem>up</stem>
        <lyric number="1" default-x="6.58" default-y="-61.47" relative-y="-30.00">
          <syllabic>single</syllabic>
          <text>‚Â</text>
          </lyric>
        </note>
      <note default-x="51.98" default-y="-45.00" dynamics="50.00">
        <pitch>
          <step>D</step>
          <octave>4</octave>
          </pitch>
        <duration>2</duration>
        <voice>1</voice>
        <type>eighth</type>
        <stem>up</stem>
        <lyric number="1" default-x="6.58" default-y="-61.47" relative-y="-30.00">
          <syllabic>single</syllabic>
          <text>‚«</text>
          </lyric>
        </note>
      <note default-x="77.26" default-y="-40.00" dynamics="50.00">
        <pitch>
          <step>E</step>
          <octave>4</octave>
          </pitch>
        <duration>4</duration>
        <voice>1</voice>
        <type>quarter</type>
        <stem>up</stem>
        <lyric number="1" default-x="6.58" default-y="-61.47" relative-y="-30.00">
          <syllabic>single</syllabic>
          <text>‚¹</text>
          </lyric>
        </note>
      <note default-x="108.57" default-y="-45.00" dynamics="50.00">
        <pitch>
          <step>D</step>
          <octave>4</octave>
          </pitch>
        <duration>4</duration>
        <voice>1</voice>
        <type>quarter</type>
        <stem>up</stem>
        <lyric number="1" default-x="6.58" default-y="-61.47" relative-y="-30.00">
          <syllabic>single</syllabic>
          <text>‚Ê</text>
          </lyric>
        </note>
      </measure>
    <measure number="19" width="148.08">
      <note default-x="11.22" default-y="-35.00" dynamics="50.00">
        <pitch>
          <step>F</step>
          <octave>4</octave>
          </pitch>
        <duration>4</duration>
        <voice>1</voice>
        <type>quarter</type>
        <stem>up</stem>
        <lyric number="1" default-x="6.58" default-y="-61.47" relative-y="-30.00">
          <syllabic>single</syllabic>
          <text>‚ </text>
          </lyric>
        </note>
      <note default-x="42.06" default-y="-40.00" dynamics="50.00">
        <pitch>
          <step>E</step>
          <octave>4</octave>
          </pitch>
        <duration>4</duration>
        <voice>1</voice>
        <type>quarter</type>
        <stem>up</stem>
        <lyric number="1" default-x="6.58" default-y="-61.47" relative-y="-30.00">
          <syllabic>single</syllabic>
          <text>‚¢</text>
          </lyric>
        </note>
      <note default-x="72.90" default-y="-45.00" dynamics="50.00">
        <pitch>
          <step>D</step>
          <octave>4</octave>
          </pitch>
        <duration>2</duration>
        <voice>1</voice>
        <type>eighth</type>
        <stem>up</stem>
        <beam number="1">begin</beam>
        <notations>
          <slur type="start" placement="below" number="1"/>
          </notations>
        <lyric number="1" default-x="6.58" default-y="-61.47" relative-y="-30.00">
          <syllabic>single</syllabic>
          <text>‚æ</text>
          </lyric>
        </note>
      <note default-x="92.37" default-y="-55.00" dynamics="50.00">
        <pitch>
          <step>B</step>
          <octave>3</octave>
          </pitch>
        <duration>2</duration>
        <voice>1</voice>
        <type>eighth</type>
        <stem>up</stem>
        <beam number="1">end</beam>
        <notations>
          <slur type="stop" number="1"/>
          </notations>
        </note>
      <note default-x="115.63" default-y="-50.00" dynamics="50.00">
        <pitch>
          <step>C</step>
          <octave>4</octave>
          </pitch>
        <duration>4</duration>
        <voice>1</voice>
        <type>quarter</type>
        <stem>up</stem>
        <lyric number="1" default-x="6.58" default-y="-61.47" relative-y="-30.00">
          <syllabic>single</syllabic>
          <text>‚è</text>
          </lyric>
        </note>
      </measure>
    <measure number="20" width="121.18">
      <note default-x="11.22" default-y="-25.00" dynamics="50.00">
        <pitch>
          <step>A</step>
          <octave>4</octave>
          </pitch>
        <duration>4</duration>
        <voice>1</voice>
        <type>quarter</type>
        <stem>up</stem>
        <lyric number="1" default-x="6.58" default-y="-61.47" relative-y="-30.00">
          <syllabic>single</syllabic>
          <text>‚¢</text>
          </lyric>
        </note>
      <note default-x="38.31" default-y="-30.00" dynamics="50.00">
        <pitch>
          <step>G</step>
          <octave>4</octave>
          </pitch>
        <duration>4</duration>
        <voice>1</voice>
        <type>quarter</type>
        <stem>up</stem>
        <lyric number="1" default-x="6.58" default-y="-61.47" relative-y="-30.00">
          <syllabic>single</syllabic>
          <text>‚Ì</text>
          </lyric>
        </note>
      <note default-x="65.40" default-y="-35.00" dynamics="50.00">
        <pitch>
          <step>F</step>
          <octave>4</octave>
          </pitch>
        <duration>4</duration>
        <voice>1</voice>
        <type>quarter</type>
        <stem>up</stem>
        <lyric number="1" default-x="6.58" default-y="-61.47" relative-y="-30.00">
          <syllabic>single</syllabic>
          <text>‚¿</text>
          </lyric>
        </note>
      <note default-x="92.49" default-y="-40.00" dynamics="50.00">
        <pitch>
          <step>E</step>
          <octave>4</octave>
          </pitch>
        <duration>4</duration>
        <voice>1</voice>
        <type>quarter</type>
        <stem>up</stem>
        <lyric number="1" default-x="6.58" default-y="-61.47" relative-y="-30.00">
          <syllabic>single</syllabic>
          <text>‚Ì</text>
          </lyric>
        </note>
      </measure>
    <measure number="21" width="134.04">
      <note default-x="11.22" default-y="-45.00" dynamics="50.00">
        <pitch>
          <step>D</step>
          <octave>4</octave>
          </pitch>
        <duration>4</duration>
        <voice>1</voice>
        <type>quarter</type>
        <stem>up</stem>
        <lyric number="1" default-x="6.58" default-y="-61.47" relative-y="-30.00">
          <syllabic>single</syllabic>
          <text>‚¢</text>
          </lyric>
        </note>
      <note default-x="39.74" default-y="-40.00" dynamics="50.00">
        <pitch>
          <step>E</step>
          <octave>4</octave>
          </pitch>
        <duration>2</duration>
        <voice>1</voice>
        <type>eighth</type>
        <stem>up</stem>
        <beam number="1">begin</beam>
        <notations>
          <slur type="start" placement="below" number="1"/>
          </notations>
        <lyric number="1" default-x="6.58" default-y="-61.47" relative-y="-30.00">
          <syllabic>single</syllabic>
          <text>‚¸</text>
          </lyric>
        </note>
      <note default-x="57.57" default-y="-50.00" dynamics="50.00">
        <pitch>
          <step>C</step>
          <octave>4</octave>
          </pitch>
        <duration>2</duration>
        <voice>1</voice>
        <type>eighth</type>
        <stem>up</stem>
        <beam number="1">end</beam>
        <notations>
          <slur type="stop" number="1"/>
          </notations>
        </note>
      <note default-x="75.39" default-y="-30.00" dynamics="50.00">
        <pitch>
          <step>G</step>
          <octave>4</octave>
          </pitch>
        <duration>4</duration>
        <voice>1</voice>
        <type>quarter</type>
        <stem>up</stem>
        <lyric number="1" default-x="6.58" default-y="-61.47" relative-y="-30.00">
          <syllabic>single</syllabic>
          <text>‚Ý</text>
          </lyric>
        </note>
      <note>
        <rest/>
        <duration>4</duration>
        <voice>1</voice>
        <type>quarter</type>
        </note>
      </measure>
    <measure number="22" width="139.33">
      <note default-x="13.80" default-y="-50.00" dynamics="50.00">
        <pitch>
          <step>C</step>
          <octave>4</octave>
          </pitch>
        <duration>6</duration>
        <voice>1</voice>
        <type>quarter</type>
        <dot/>
        <stem>up</stem>
        <lyric number="1" default-x="6.58" default-y="-61.47" relative-y="-30.00">
          <syllabic>single</syllabic>
          <text>‚ä</text>
          </lyric>
        </note>
      <note default-x="51.17" default-y="-45.00" dynamics="50.00">
        <pitch>
          <step>D</step>
          <octave>4</octave>
          </pitch>
        <duration>2</duration>
        <voice>1</voice>
        <type>eighth</type>
        <stem>up</stem>
        <lyric number="1" default-x="6.58" default-y="-61.47" relative-y="-30.00">
          <syllabic>single</syllabic>
          <text>‚½</text>
          </lyric>
        </note>
      <note default-x="76.44" default-y="-40.00" dynamics="50.00">
        <pitch>
          <step>E</step>
          <octave>4</octave>
          </pitch>
        <duration>4</duration>
        <voice>1</voice>
        <type>quarter</type>
        <stem>up</stem>
        <lyric number="1" default-x="6.58" default-y="-61.47" relative-y="-30.00">
          <syllabic>single</syllabic>
          <text>‚©</text>
          </lyric>
        </note>
      <note default-x="107.09" default-y="-45.00" dynamics="50.00">
        <pitch>
          <step>D</step>
          <octave>4</octave>
          </pitch>
        <duration>4</duration>
        <voice>1</voice>
        <type>quarter</type>
        <stem>up</stem>
        <lyric number="1" default-x="6.58" default-y="-61.47" relative-y="-30.00">
          <syllabic>single</syllabic>
          <text>‚É</text>
          </lyric>
        </note>
      </measure>
    <measure number="23" width="187.39">
      <print new-system="yes">
        <system-layout>
          <system-margins>
            <left-margin>0.00</left-margin>
            <right-margin>-0.00</right-margin>
            </system-margins>
          <system-distance>150.00</system-distance>
          </system-layout>
        </print>
      <note default-x="58.17" default-y="-35.00" dynamics="50.00">
        <pitch>
          <step>F</step>
          <octave>4</octave>
          </pitch>
        <duration>4</duration>
        <voice>1</voice>
        <type>quarter</type>
        <stem>up</stem>
        <lyric number="1" default-x="6.58" default-y="-68.20" relative-y="-30.00">
          <syllabic>single</syllabic>
          <text>‚í</text>
          </lyric>
        </note>
      <note default-x="86.47" default-y="-40.00" dynamics="50.00">
        <pitch>
          <step>E</step>
          <octave>4</octave>
          </pitch>
        <duration>4</duration>
        <voice>1</voice>
        <type>quarter</type>
        <stem>up</stem>
        <lyric number="1" default-x="6.58" default-y="-68.20" relative-y="-30.00">
          <syllabic>single</syllabic>
          <text>‚«</text>
          </lyric>
        </note>
      <note default-x="114.76" default-y="-45.00" dynamics="50.00">
        <pitch>
          <step>D</step>
          <octave>4</octave>
          </pitch>
        <duration>2</duration>
        <voice>1</voice>
        <type>eighth</type>
        <stem>up</stem>
        <beam number="1">begin</beam>
        <notations>
          <slur type="start" placement="below" number="1"/>
          </notations>
        <lyric number="1" default-x="6.58" default-y="-68.20" relative-y="-30.00">
          <syllabic>single</syllabic>
          <text>‚¢</text>
          </lyric>
        </note>
      <note default-x="134.23" default-y="-55.00" dynamics="50.00">
        <pitch>
          <step>B</step>
          <octave>3</octave>
          </pitch>
        <duration>2</duration>
        <voice>1</voice>
        <type>eighth</type>
        <stem>up</stem>
        <beam number="1">end</beam>
        <notations>
          <slur type="stop" number="1"/>
          </notations>
        </note>
      <note default-x="157.49" default-y="-50.00" dynamics="50.00">
        <pitch>
          <step>C</step>
          <octave>4</octave>
          </pitch>
        <duration>4</duration>
        <voice>1</voice>
        <type>quarter</type>
        <stem>up</stem>
        <lyric number="1" default-x="6.58" default-y="-68.20" relative-y="-30.00">
          <syllabic>single</syllabic>
          <text>‚Å</text>
          </lyric>
        </note>
      </measure>
    <measure number="24" width="106.73">
      <note default-x="10.00" default-y="-25.00" dynamics="50.00">
        <pitch>
          <step>A</step>
          <octave>4</octave>
          </pitch>
        <duration>4</duration>
        <voice>1</voice>
        <type>quarter</type>
        <stem>up</stem>
        <lyric number="1" default-x="6.58" default-y="-68.20" relative-y="-30.00">
          <syllabic>single</syllabic>
          <text>‚­</text>
          </lyric>
        </note>
      <note default-x="33.58" default-y="-30.00" dynamics="50.00">
        <pitch>
          <step>G</step>
          <octave>4</octave>
          </pitch>
        <duration>4</duration>
        <voice>1</voice>
        <type>quarter</type>
        <stem>up</stem>
        <lyric number="1" default-x="6.58" default-y="-68.20" relative-y="-30.00">
          <syllabic>single</syllabic>
          <text>‚ß</text>
          </lyric>
        </note>
      <note default-x="57.17" default-y="-35.00" dynamics="50.00">
        <pitch>
          <step>F</step>
          <octave>4</octave>
          </pitch>
        <duration>4</duration>
        <voice>1</voice>
        <type>quarter</type>
        <stem>up</stem>
        <lyric number="1" default-x="6.58" default-y="-68.20" relative-y="-30.00">
          <syllabic>single</syllabic>
          <text>‚Ç</text>
          </lyric>
        </note>
      <note default-x="80.75" default-y="-40.00" dynamics="50.00">
        <pitch>
          <step>E</step>
          <octave>4</octave>
          </pitch>
        <duration>4</duration>
        <voice>1</voice>
        <type>quarter</type>
        <stem>up</stem>
        <lyric number="1" default-x="6.58" default-y="-68.20" relative-y="-30.00">
          <syllabic>single</syllabic>
          <text>‚Â</text>
          </lyric>
        </note>
      </measure>
    <measure number="25" width="123.17">
      <note default-x="10.42" default-y="-45.00" dynamics="50.00">
        <pitch>
          <step>D</step>
          <octave>4</octave>
          </pitch>
        <duration>4</duration>
        <voice>1</voice>
        <type>quarter</type>
        <stem>up</stem>
        <lyric number="1" default-x="6.58" default-y="-68.20" relative-y="-30.00">
          <syllabic>single</syllabic>
          <text>‚«</text>
          </lyric>
        </note>
      <note default-x="36.57" default-y="-40.00" dynamics="50.00">
        <pitch>
          <step>E</step>
          <octave>4</octave>
          </pitch>
        <duration>2</duration>
        <voice>1</voice>
        <type>eighth</type>
        <stem>up</stem>
        <beam number="1">begin</beam>
        <notations>
          <slur type="start" placement="below" number="1"/>
          </notations>
        <lyric number="1" default-x="6.58" default-y="-68.20" relative-y="-30.00">
          <syllabic>single</syllabic>
          <text>‚Ë</text>
          </lyric>
        </note>
      <note default-x="52.92" default-y="-50.00" dynamics="50.00">
        <pitch>
          <step>C</step>
          <octave>4</octave>
          </pitch>
        <duration>2</duration>
        <voice>1</voice>
        <type>eighth</type>
        <stem>up</stem>
        <beam number="1">end</beam>
        <notations>
          <slur type="stop" number="1"/>
          </notations>
        </note>
      <note default-x="69.26" default-y="-30.00" dynamics="50.00">
        <pitch>
          <step>G</step>
          <octave>4</octave>
          </pitch>
        <duration>4</duration>
        <voice>1</voice>
        <type>quarter</type>
        <stem>up</stem>
        <lyric number="1" default-x="6.58" default-y="-68.20" relative-y="-30.00">
          <syllabic>single</syllabic>
          <text>‚Î</text>
          </lyric>
        </note>
      <note>
        <rest/>
        <duration>4</duration>
        <voice>1</voice>
        <type>quarter</type>
        </note>
      </measure>
    <measure number="26" width="135.91">
      <note default-x="12.02" default-y="-45.00" dynamics="50.00">
        <pitch>
          <step>D</step>
          <octave>4</octave>
          </pitch>
        <duration>4</duration>
        <voice>1</voice>
        <type>quarter</type>
        <stem>up</stem>
        <lyric number="1" default-x="6.58" default-y="-68.20" relative-y="-30.00">
          <syllabic>single</syllabic>
          <text>‚Ý</text>
          </lyric>
        </note>
      <note default-x="38.54" default-y="-40.00" dynamics="50.00">
        <pitch>
          <step>E</step>
          <octave>4</octave>
          </pitch>
        <duration>4</duration>
        <voice>1</voice>
        <type>quarter</type>
        <stem>up</stem>
        <lyric number="1" default-x="6.58" default-y="-68.20" relative-y="-30.00">
          <syllabic>single</syllabic>
          <text>‚­</text>
          </lyric>
        </note>
      <note default-x="65.06" default-y="-45.00" dynamics="50.00">
        <pitch>
          <step>D</step>
          <octave>4</octave>
          </pitch>
        <duration>2</duration>
        <voice>1</voice>
        <type>eighth</type>
        <stem>up</stem>
        <beam number="1">begin</beam>
        <notations>
          <slur type="start" placement="below" number="1"/>
          </notations>
        <lyric number="1" default-x="6.58" default-y="-68.20" relative-y="-30.00">
          <syllabic>single</syllabic>
          <text>‚É</text>
          </lyric>
        </note>
      <note default-x="84.52" default-y="-55.00" dynamics="50.00">
        <pitch>
          <step>B</step>
          <octave>3</octave>
          </pitch>
        <duration>2</duration>
        <voice>1</voice>
        <type>eighth</type>
        <stem>up</stem>
        <beam number="1">end</beam>
        <notations>
          <slur type="stop" number="1"/>
          </notations>
        </note>
      <note default-x="107.79" default-y="-65.00" dynamics="50.00">
        <pitch>
          <step>G</step>
          <octave>3</octave>
          </pitch>
        <duration>4</duration>
        <voice>1</voice>
        <type>quarter</type>
        <stem>up</stem>
        <lyric number="1" default-x="6.58" default-y="-68.20" relative-y="-30.00">
          <syllabic>single</syllabic>
          <text>‚Ì</text>
          </lyric>
        </note>
      </measure>
    <measure number="27" width="141.47">
      <note default-x="12.02" default-y="-35.00" dynamics="50.00">
        <pitch>
          <step>F</step>
          <octave>4</octave>
          </pitch>
        <duration>4</duration>
        <voice>1</voice>
        <type>quarter</type>
        <stem>up</stem>
        <lyric number="1" default-x="6.58" default-y="-68.20" relative-y="-30.00">
          <syllabic>single</syllabic>
          <text>‚¹</text>
          </lyric>
        </note>
      <note default-x="40.39" default-y="-40.00" dynamics="50.00">
        <pitch>
          <step>E</step>
          <octave>4</octave>
          </pitch>
        <duration>4</duration>
        <voice>1</voice>
        <type>quarter</type>
        <stem>up</stem>
        <lyric number="1" default-x="6.58" default-y="-68.20" relative-y="-30.00">
          <syllabic>single</syllabic>
          <text>‚¢</text>
          </lyric>
        </note>
      <note default-x="68.76" default-y="-45.00" dynamics="50.00">
        <pitch>
          <step>D</step>
          <octave>4</octave>
          </pitch>
        <duration>2</duration>
        <voice>1</voice>
        <type>eighth</type>
        <stem>up</stem>
        <beam number="1">begin</beam>
        <notations>
          <slur type="start" placement="below" number="1"/>
          </notations>
        <lyric number="1" default-x="6.58" default-y="-68.20" relative-y="-30.00">
          <syllabic>single</syllabic>
          <text>‚µ</text>
          </lyric>
        </note>
      <note default-x="88.23" default-y="-55.00" dynamics="50.00">
        <pitch>
          <step>B</step>
          <octave>3</octave>
          </pitch>
        <duration>2</duration>
        <voice>1</voice>
        <type>eighth</type>
        <stem>up</stem>
        <beam number="1">end</beam>
        <notations>
          <slur type="stop" number="1"/>
          </notations>
        </note>
      <note default-x="111.50" default-y="-65.00" dynamics="50.00">
        <pitch>
          <step>G</step>
          <octave>3</octave>
          </pitch>
        <duration>4</duration>
        <voice>1</voice>
        <type>quarter</type>
        <stem>up</stem>
        <lyric number="1" default-x="6.58" default-y="-68.20" relative-y="-30.00">
          <syllabic>single</syllabic>
          <text>‚í</text>
          </lyric>
        </note>
      </measure>
    <measure number="28" width="127.54">
      <note default-x="11.82" default-y="-30.00" dynamics="50.00">
        <pitch>
          <step>G</step>
          <octave>4</octave>
          </pitch>
        <duration>4</duration>
        <voice>1</voice>
        <type>quarter</type>
        <stem>up</stem>
        <lyric number="1" default-x="6.58" default-y="-68.20" relative-y="-30.00">
          <syllabic>single</syllabic>
          <text>‚©</text>
          </lyric>
        </note>
      <note default-x="37.09" default-y="-35.00" dynamics="50.00">
        <pitch>
          <step>F</step>
          <octave>4</octave>
          </pitch>
        <duration>4</duration>
        <voice>1</voice>
        <type>quarter</type>
        <stem>up</stem>
        <lyric number="1" default-x="6.58" default-y="-68.20" relative-y="-30.00">
          <syllabic>single</syllabic>
          <text>‚í</text>
          </lyric>
        </note>
      <note default-x="62.35" default-y="-40.00" dynamics="50.00">
        <pitch>
          <step>E</step>
          <octave>4</octave>
          </pitch>
        <duration>6</duration>
        <voice>1</voice>
        <type>quarter</type>
        <dot/>
        <stem>up</stem>
        <lyric number="1" default-x="6.58" default-y="-68.20" relative-y="-30.00">
          <syllabic>single</syllabic>
          <text>‚­</text>
          </lyric>
        </note>
      <note default-x="93.16" default-y="-35.00" dynamics="50.00">
        <pitch>
          <step>F</step>
          <octave>4</octave>
          </pitch>
        <duration>2</duration>
        <voice>1</voice>
        <type>eighth</type>
        <stem>up</stem>
        <lyric number="1" default-x="6.58" default-y="-68.20" relative-y="-30.00">
          <syllabic>single</syllabic>
          <text>‚Æ</text>
          </lyric>
        </note>
      </measure>
    <measure number="29" width="121.97">
      <note default-x="10.42" default-y="-35.00" dynamics="50.00">
        <pitch>
          <step>F</step>
          <octave>4</octave>
          </pitch>
        <duration>4</duration>
        <voice>1</voice>
        <type>quarter</type>
        <stem>up</stem>
        <lyric number="1" default-x="6.58" default-y="-68.20" relative-y="-30.00">
          <syllabic>single</syllabic>
          <text>‚«</text>
          </lyric>
        </note>
      <note default-x="36.29" default-y="-35.00" dynamics="50.00">
        <pitch>
          <step>F</step>
          <octave>4</octave>
          </pitch>
        <duration>2</duration>
        <voice>1</voice>
        <type>eighth</type>
        <stem>up</stem>
        <beam number="1">begin</beam>
        <notations>
          <slur type="start" placement="below" number="1"/>
          </notations>
        <lyric number="1" default-x="6.58" default-y="-68.20" relative-y="-30.00">
          <syllabic>single</syllabic>
          <text>‚È</text>
          </lyric>
        </note>
      <note default-x="52.46" default-y="-30.00" dynamics="50.00">
        <pitch>
          <step>G</step>
          <octave>4</octave>
          </pitch>
        <duration>2</duration>
        <voice>1</voice>
        <type>eighth</type>
        <stem>up</stem>
        <beam number="1">end</beam>
        <notations>
          <slur type="stop" number="1"/>
          </notations>
        </note>
      <note default-x="68.63" default-y="-30.00" dynamics="50.00">
        <pitch>
          <step>G</step>
          <octave>4</octave>
          </pitch>
        <duration>4</duration>
        <voice>1</voice>
        <type>quarter</type>
        <stem>up</stem>
        <lyric number="1" default-x="6.58" default-y="-68.20" relative-y="-30.00">
          <syllabic>single</syllabic>
          <text>‚­</text>
          </lyric>
        </note>
      <note>
        <rest/>
        <duration>4</duration>
        <voice>1</voice>
        <type>quarter</type>
        </note>
      </measure>
    <measure number="30" width="132.99">
      <note default-x="11.22" default-y="-15.00" dynamics="50.00">
        <pitch>
          <step>C</step>
          <octave>5</octave>
          </pitch>
        <duration>6</duration>
        <voice>1</voice>
        <type>quarter</type>
        <dot/>
        <stem>down</stem>
        <lyric number="1" default-x="6.58" default-y="-68.20" relative-y="-30.00">
          <syllabic>single</syllabic>
          <text>‚ </text>
          </lyric>
        </note>
      <note default-x="47.01" default-y="-20.00" dynamics="50.00">
        <pitch>
          <step>B</step>
          <octave>4</octave>
          </pitch>
        <duration>2</duration>
        <voice>1</voice>
        <type>eighth</type>
        <stem>down</stem>
        <lyric number="1" default-x="6.58" default-y="-68.20" relative-y="-30.00">
          <syllabic>single</syllabic>
          <text>‚Ó</text>
          </lyric>
        </note>
      <note default-x="65.35" default-y="-20.00" dynamics="50.00">
        <pitch>
          <step>B</step>
          <octave>4</octave>
          </pitch>
        <duration>2</duration>
        <voice>1</voice>
        <type>eighth</type>
        <stem>up</stem>
        <beam number="1">begin</beam>
        <notations>
          <slur type="start" placement="below" number="1"/>
          </notations>
        <lyric number="1" default-x="6.58" default-y="-68.20" relative-y="-30.00">
          <syllabic>single</syllabic>
          <text>‚é</text>
          </lyric>
        </note>
      <note default-x="83.69" default-y="-25.00" dynamics="50.00">
        <pitch>
          <step>A</step>
          <octave>4</octave>
          </pitch>
        <duration>2</duration>
        <voice>1</voice>
        <type>eighth</type>
        <stem>up</stem>
        <beam number="1">end</beam>
        <notations>
          <slur type="stop" number="1"/>
          </notations>
        </note>
      <note default-x="102.04" default-y="-30.00" dynamics="50.00">
        <pitch>
          <step>G</step>
          <octave>4</octave>
          </pitch>
        <duration>4</duration>
        <voice>1</voice>
        <type>quarter</type>
        <stem>up</stem>
        <lyric number="1" default-x="6.58" default-y="-68.20" relative-y="-30.00">
          <syllabic>single</syllabic>
          <text>‚é</text>
          </lyric>
        </note>
      </measure>
    <measure number="31" width="383.05">
      <print new-system="yes">
        <system-layout>
          <system-margins>
            <left-margin>0.00</left-margin>
            <right-margin>0.00</right-margin>
            </system-margins>
          <system-distance>150.00</system-distance>
          </system-layout>
        </print>
      <note default-x="58.17" default-y="-25.00" dynamics="50.00">
        <pitch>
          <step>A</step>
          <octave>4</octave>
          </pitch>
        <duration>6</duration>
        <voice>1</voice>
        <type>quarter</type>
        <dot/>
        <stem>up</stem>
        <lyric number="1" default-x="6.58" default-y="-55.76" relative-y="-30.00">
          <syllabic>single</syllabic>
          <text>‚ß</text>
          </lyric>
        </note>
      <note default-x="154.45" default-y="-30.00" dynamics="50.00">
        <pitch>
          <step>G</step>
          <octave>4</octave>
          </pitch>
        <duration>2</duration>
        <voice>1</voice>
        <type>eighth</type>
        <stem>up</stem>
        <lyric number="1" default-x="6.58" default-y="-55.76" relative-y="-30.00">
          <syllabic>single</syllabic>
          <text>‚®</text>
          </lyric>
        </note>
      <note default-x="203.80" default-y="-30.00" dynamics="50.00">
        <pitch>
          <step>G</step>
          <octave>4</octave>
          </pitch>
        <duration>2</duration>
        <voice>1</voice>
        <type>eighth</type>
        <stem>up</stem>
        <beam number="1">begin</beam>
        <notations>
          <slur type="start" placement="below" number="1"/>
          </notations>
        <lyric number="1" default-x="6.58" default-y="-55.76" relative-y="-30.00">
          <syllabic>single</syllabic>
          <text>‚Ý</text>
          </lyric>
        </note>
      <note default-x="253.15" default-y="-35.00" dynamics="50.00">
        <pitch>
          <step>F</step>
          <octave>4</octave>
          </pitch>
        <duration>2</duration>
        <voice>1</voice>
        <type>eighth</type>
        <stem>up</stem>
        <beam number="1">end</beam>
        <notations>
          <slur type="stop" number="1"/>
          </notations>
        </note>
      <note default-x="302.50" default-y="-40.00" dynamics="50.00">
        <pitch>
          <step>E</step>
          <octave>4</octave>
          </pitch>
        <duration>4</duration>
        <voice>1</voice>
        <type>quarter</type>
        <stem>up</stem>
        <lyric number="1" default-x="6.58" default-y="-55.76" relative-y="-30.00">
          <syllabic>single</syllabic>
          <text>‚É</text>
          </lyric>
        </note>
      </measure>
    <measure number="32" width="360.70">
      <note default-x="11.22" default-y="-45.00" dynamics="50.00">
        <pitch>
          <step>D</step>
          <octave>4</octave>
          </pitch>
        <duration>6</duration>
        <voice>1</voice>
        <type>quarter</type>
        <dot/>
        <stem>up</stem>
        <lyric number="1" default-x="6.58" default-y="-55.76" relative-y="-30.00">
          <syllabic>single</syllabic>
          <text>‚½</text>
          </lyric>
        </note>
      <note default-x="92.25" default-y="-40.00" dynamics="50.00">
        <pitch>
          <step>E</step>
          <octave>4</octave>
          </pitch>
        <duration>1</duration>
        <voice>1</voice>
        <type>16th</type>
        <stem>up</stem>
        <beam number="1">begin</beam>
        <beam number="2">begin</beam>
        <notations>
          <slur type="start" placement="below" number="1"/>
          </notations>
        <lyric number="1" default-x="6.58" default-y="-55.76" relative-y="-30.00">
          <syllabic>single</syllabic>
          <text>‚¦</text>
          </lyric>
        </note>
      <note default-x="124.02" default-y="-35.00" dynamics="50.00">
        <pitch>
          <step>F</step>
          <octave>4</octave>
          </pitch>
        <duration>1</duration>
        <voice>1</voice>
        <type>16th</type>
        <stem>up</stem>
        <beam number="1">end</beam>
        <beam number="2">end</beam>
        <notations>
          <slur type="stop" number="1"/>
          </notations>
        </note>
      <note default-x="155.79" default-y="-30.00" dynamics="50.00">
        <pitch>
          <step>G</step>
          <octave>4</octave>
          </pitch>
        <duration>2</duration>
        <voice>1</voice>
        <type>eighth</type>
        <stem>up</stem>
        <beam number="1">begin</beam>
        <notations>
          <slur type="start" placement="below" number="1"/>
          </notations>
        <lyric number="1" default-x="6.58" default-y="-55.76" relative-y="-30.00">
          <syllabic>single</syllabic>
          <text>‚¸</text>
          </lyric>
        </note>
      <note default-x="206.62" default-y="-25.00" dynamics="50.00">
        <pitch>
          <step>A</step>
          <octave>4</octave>
          </pitch>
        <duration>2</duration>
        <voice>1</voice>
        <type>eighth</type>
        <stem>up</stem>
        <beam number="1">continue</beam>
        <notations>
          <slur type="stop" number="1"/>
          </notations>
        </note>
      <note default-x="257.44" default-y="-35.00" dynamics="50.00">
        <pitch>
          <step>F</step>
          <octave>4</octave>
          </pitch>
        <duration>2</duration>
        <voice>1</voice>
        <type>eighth</type>
        <stem>up</stem>
        <beam number="1">continue</beam>
        <notations>
          <slur type="start" placement="below" number="1"/>
          </notations>
        <lyric number="1" default-x="6.58" default-y="-55.76" relative-y="-30.00">
          <syllabic>single</syllabic>
          <text>‚¤</text>
          </lyric>
        </note>
      <note default-x="308.27" default-y="-45.00" dynamics="50.00">
        <pitch>
          <step>D</step>
          <octave>4</octave>
          </pitch>
        <duration>2</duration>
        <voice>1</voice>
        <type>eighth</type>
        <stem>up</stem>
        <beam number="1">end</beam>
        <notations>
          <slur type="stop" number="1"/>
          </notations>
        </note>
      </measure>
    <measure number="33" width="333.41">
      <note default-x="13.80" default-y="-50.00" dynamics="50.00">
        <pitch>
          <step>C</step>
          <octave>4</octave>
          </pitch>
        <duration>4</duration>
        <voice>1</voice>
        <type>quarter</type>
        <stem>up</stem>
        <lyric number="1" default-x="6.58" default-y="-55.76" relative-y="-30.00">
          <syllabic>single</syllabic>
          <text>‚é</text>
          </lyric>
        </note>
      <note default-x="86.51" default-y="-40.00" dynamics="50.00">
        <pitch>
          <step>E</step>
          <octave>4</octave>
          </pitch>
        <duration>2</duration>
        <voice>1</voice>
        <type>eighth</type>
        <stem>up</stem>
        <beam number="1">begin</beam>
        <notations>
          <slur type="start" placement="below" number="1"/>
          </notations>
        <lyric number="1" default-x="6.58" default-y="-55.76" relative-y="-30.00">
          <syllabic>single</syllabic>
          <text>‚¨</text>
          </lyric>
        </note>
      <note default-x="131.95" default-y="-45.00" dynamics="50.00">
        <pitch>
          <step>D</step>
          <octave>4</octave>
          </pitch>
        <duration>2</duration>
        <voice>1</voice>
        <type>eighth</type>
        <stem>up</stem>
        <beam number="1">end</beam>
        <notations>
          <slur type="stop" number="1"/>
          </notations>
        </note>
      <note default-x="177.40" default-y="-50.00" dynamics="50.00">
        <pitch>
          <step>C</step>
          <octave>4</octave>
          </pitch>
        <duration>4</duration>
        <voice>1</voice>
        <type>quarter</type>
        <stem>up</stem>
        <lyric number="1" default-x="6.58" default-y="-55.76" relative-y="-30.00">
          <syllabic>single</syllabic>
          <text>‚¨</text>
          </lyric>
        </note>
      <note>
        <rest/>
        <duration>4</duration>
        <voice>1</voice>
        <type>quarter</type>
        </note>
      <barline location="right">
        <bar-style>light-heavy</bar-style>
        </barline>
      </measure>
    </part>
  </score-partwise>
